<svg class="ldi-vsmdoj" width="200px"  height="200px"  xmlns="http://www.w3.org/2000/svg" xmlns:xlink="http://www.w3.org/1999/xlink" viewBox="0 0 100 100" preserveAspectRatio="xMidYMid" style="background: none;"><!--?xml version="1.0" encoding="utf-8"?--><!--Generator: Adobe Illustrator 21.0.0, SVG Export Plug-In . SVG Version: 6.00 Build 0)--><svg version="1.1" id="圖層_1" xmlns="http://www.w3.org/2000/svg" xmlns:xlink="http://www.w3.org/1999/xlink" x="0px" y="0px" viewBox="0 0 100 100" style="transform-origin: 50px 50px 0px;" xml:space="preserve"><g style="transform-origin: 50px 50px 0px;"><g style="transform-origin: 50px 50px 0px; transform: scale(0.6);"><g style="transform-origin: 50px 50px 0px;"><g><style type="text/css" class="ld ld-fade" style="transform-origin: 50px 50px 0px; animation-duration: 1s; animation-delay: -1s; animation-direction: normal;">.st0,.st1{fill:none;stroke-width:4;stroke-miterlimit:10}.st0{stroke-linecap:round;stroke-linejoin:round;stroke:#77a4bd}.st1{stroke:#333}.st2{fill:#333}.st3{fill:#e15b64}.st4{fill:#f8b26a}.st5{fill:#abbd81}.st6{fill:#a0c8d7}.st7,.st8{fill:#fff;stroke:#77a4bd;stroke-width:3;stroke-miterlimit:10}.st8{fill:none;stroke:#e0e0e0;stroke-width:2}.st9{fill:#849b87}.st10{fill:#666}.st11{stroke:#849b87}.st11,.st12,.st13,.st14,.st15,.st16,.st17,.st18{fill:none;stroke-width:3.9263;stroke-miterlimit:10}.st12{stroke-linecap:round;stroke:#849b87}.st13,.st14,.st15,.st16,.st17,.st18{stroke:#e15b64}.st14,.st15,.st16,.st17,.st18{stroke-linecap:round}.st15,.st16,.st17,.st18{stroke:#849b87;stroke-width:4}.st16,.st17,.st18{stroke:#77a4bd}.st17,.st18{stroke:#e15b64}.st18{stroke:#333;stroke-linejoin:round}.st19{fill:#e0e0e0}.st20,.st21{fill:none;stroke:#e15b64;stroke-width:8;stroke-miterlimit:10}.st21{stroke-width:9.375}.st22{fill:#abbc80}.st23{fill:#f3e5c7}.st24{fill:none;stroke:#666;stroke-width:3.9263;stroke-miterlimit:10}.st25{fill:#f5e6c8}.st26{fill:#fcedce}.st27{fill:#fff2d9}.st28{fill:#32517a}.st29{fill:#fff}.st30,.st31,.st32{fill:none;stroke-width:4;stroke-miterlimit:10}.st30{stroke-linecap:round;stroke:#f8b26a}.st31,.st32{stroke:#77a4bd}.st32{stroke-width:3.9}.st33,.st34,.st35{fill:#fff;stroke:#fff;stroke-miterlimit:10}.st34,.st35{fill:none;stroke-width:2;stroke-linecap:round}.st35{stroke:#77a4bd;stroke-width:3;stroke-linejoin:round}.st36{fill:#77a4bd}.st37{fill:#e0e0e0;stroke:#77a4bd;stroke-width:3;stroke-miterlimit:10}.st38,.st39,.st40,.st41,.st42{fill:#e15b64;stroke:#333;stroke-width:4;stroke-miterlimit:10}.st39,.st40,.st41,.st42{fill:#f8b26a}.st40,.st41,.st42{fill:#abbd81}.st41,.st42{fill:#a0c8d7}.st42{fill:#fff}.st43{fill:#b3b3b3}.st44,.st45{fill:none;stroke:#333;stroke-width:3;stroke-miterlimit:10}.st45{stroke:#fff;stroke-width:4;stroke-linecap:round;stroke-linejoin:round}</style><g class="ld ld-fade" style="transform-origin: 50px 50px 0px; animation-duration: 1s; animation-delay: -0.916667s; animation-direction: normal;"><path class="st1" d="M50,13.353c-24.064,0-40,11.146-40,34.452c0,9.677,2.755,17.251,7.691,22.808 c-1.155,5.485-2.723,10.562-4.381,13.492c-0.725,1.281,0.459,2.871,1.879,2.484c0.015-0.004,0.03-0.008,0.044-0.012 c4.011-1.133,9.002-4.158,13.906-7.998c5.886,2.459,12.928,3.678,20.861,3.678c24.064,0,40-11.146,40-34.452 C90,24.499,74.064,13.353,50,13.353z" stroke="rgb(51, 51, 51)" style="stroke: rgb(51, 51, 51);"></path></g><g class="ld ld-fade" style="transform-origin: 50px 50px 0px; animation-duration: 1s; animation-delay: -0.833333s; animation-direction: normal;"><path class="st1" d="M41.899,38.678l1.399-1.399c1.743-1.744,1.743-4.57,0-6.314l-2.158-2.158c-1.743-1.744-4.57-1.744-6.314,0 l-1.079,1.079l-2.418,2.418c-2.027,2.027-2.41,5.172-0.945,7.637c6.875,11.574,16.1,20.799,27.674,27.674 c2.465,1.464,5.61,1.082,7.637-0.945l2.418-2.418l1.079-1.079c1.743-1.744,1.743-4.57,0-6.314l-2.158-2.158 c-1.744-1.743-4.57-1.743-6.314,0l-1.399,1.399c-0.696,0.696-1.81,0.765-2.575,0.146c-5.525-4.47-10.523-9.468-14.994-14.994 C41.134,40.488,41.203,39.374,41.899,38.678z" stroke="rgb(51, 51, 51)" style="stroke: rgb(51, 51, 51);"></path></g><metadata xmlns:d="https://loading.io/stock/" class="ld ld-fade" style="transform-origin: 50px 50px 0px; animation-duration: 1s; animation-delay: -0.75s; animation-direction: normal;">
<d:name class="ld ld-fade" style="transform-origin: 50px 50px 0px; animation-duration: 1s; animation-delay: -0.666667s; animation-direction: normal;">message</d:name>
<d:tags class="ld ld-fade" style="transform-origin: 50px 50px 0px; animation-duration: 1s; animation-delay: -0.583333s; animation-direction: normal;">sms,text,type,mail,phone,bubble,message,communication</d:tags>
<d:license class="ld ld-fade" style="transform-origin: 50px 50px 0px; animation-duration: 1s; animation-delay: -0.5s; animation-direction: normal;">cc-by</d:license>
<d:slug class="ld ld-fade" style="transform-origin: 50px 50px 0px; animation-duration: 1s; animation-delay: -0.416667s; animation-direction: normal;">vsmdoj</d:slug>
</metadata></g></g></g></g><style type="text/css" class="ld ld-fade" style="transform-origin: 50px 50px 0px; animation-duration: 1s; animation-delay: -0.333333s; animation-direction: normal;">path,ellipse,circle,rect,polygon,polyline,line { stroke-width: 0; }@keyframes ld-fade {
  0% {
    opacity: 1;
  }
  100% {
    opacity: 0;
  }
}
@-webkit-keyframes ld-fade {
  0% {
    opacity: 1;
  }
  100% {
    opacity: 0;
  }
}
.ld.ld-fade {
  -webkit-animation: ld-fade 1s infinite linear;
  animation: ld-fade 1s infinite linear;
}
</style></svg></svg>